<svg xmlns="http://www.w3.org/2000/svg" viewBox="0 0 320 240" width="320" height="240" fill="none" role="img" aria-label="No results illustration">
  <!-- soft backdrop blob -->
  <ellipse cx="160" cy="124" rx="112" ry="84" fill="#6366F1" opacity="0.06"/>
  <!-- dashed list lines -->
  <path d="M72 76h84" stroke="#8B94AB" stroke-width="2" stroke-linecap="round" stroke-dasharray="3 9"/>
  <path d="M72 108h64" stroke="#8B94AB" stroke-width="2" stroke-linecap="round" stroke-dasharray="3 9"/>
  <path d="M72 140h96" stroke="#8B94AB" stroke-width="2" stroke-linecap="round" stroke-dasharray="3 9"/>
  <path d="M72 172h56" stroke="#8B94AB" stroke-width="2" stroke-linecap="round" stroke-dasharray="3 9"/>
  <circle cx="58" cy="76" r="3" fill="#C7D2FE"/>
  <circle cx="58" cy="108" r="3" fill="#C7D2FE"/>
  <circle cx="58" cy="140" r="3" fill="#C7D2FE"/>
  <circle cx="58" cy="172" r="3" fill="#C7D2FE"/>
  <!-- magnifying glass -->
  <circle cx="196" cy="112" r="46" fill="#FFFFFF" stroke="#8B94AB" stroke-width="2.5"/>
  <circle cx="196" cy="112" r="34" stroke="#C7D2FE" stroke-width="2" stroke-dasharray="4 7"/>
  <path d="M230 146l34 34" stroke="#8B94AB" stroke-width="6" stroke-linecap="round"/>
  <!-- zero bubble inside lens -->
  <circle cx="196" cy="112" r="17" fill="#6366F1"/>
  <path d="M196 103.5c4.7 0 7.5 3.4 7.5 8.5s-2.8 8.5-7.5 8.5-7.5-3.4-7.5-8.5 2.8-8.5 7.5-8.5zm0 3.4c-2.4 0-3.7 2-3.7 5.1s1.3 5.1 3.7 5.1 3.7-2 3.7-5.1-1.3-5.1-3.7-5.1z" fill="#FFFFFF"/>
  <!-- sparkle -->
  <path d="M254 66l1.8 4.7 4.7 1.8-4.7 1.8-1.8 4.7-1.8-4.7-4.7-1.8 4.7-1.8 1.8-4.7z" fill="#A78BFA"/>
</svg>
